<svg xmlns="http://www.w3.org/2000/svg" width="683" height="521" viewBox="0 0 683 521" fill="none">
<path d="M628.892 99.6173C606.235 75.4352 588.697 46.5678 561.617 26.8332C519.082 -4.22926 457.866 -7.25838 408.131 12.2559C358.394 31.769 319.65 71.1032 294.113 115.642C280.68 139.076 270.129 164.637 250.445 183.787C233.805 199.965 211.935 210.287 191.199 221.529C157.766 239.606 125.57 261.448 103.934 291.418C82.2999 321.389 72.627 360.751 86.4568 394.527C95.7829 417.318 114.568 435.452 133.812 451.87C156.459 471.173 180.8 489.249 208.892 500.75C244.06 515.06 283.101 518.136 321.386 519.593C389.258 522.164 457.239 520.242 524.824 513.842C580.167 508.609 637.185 499.677 683.489 470.761C748.353 430.267 781.795 356.074 789.325 283.321C792.388 254.222 791.613 223.983 779.641 196.984C751.009 132.405 673.755 147.51 628.891 99.6173H628.892Z" fill="#EFF1F7"/>
<path d="M192.633 218.578C192.633 218.578 174.7 215.395 169.677 227.943C164.654 240.492 169.677 283.829 169.677 283.829L236.582 331.647L192.633 218.578Z" fill="#3F3D56"/>
<path d="M276.771 410.213L250.245 417.783C246.39 418.875 242.348 416.755 241.201 413.045C240.07 409.331 242.267 405.434 246.116 404.329L272.607 396.751C276.458 395.66 280.5 397.774 281.651 401.482C282.794 405.191 280.614 409.093 276.771 410.213Z" fill="#2BD0D0"/>
<path d="M275.473 438.595C282.036 438.595 287.356 433.275 287.356 426.712C287.356 420.149 282.036 414.829 275.473 414.829C268.91 414.829 263.59 420.149 263.59 426.712C263.59 433.275 268.91 438.595 275.473 438.595Z" fill="#25233A"/>
<path d="M273.852 435.354C277.134 435.354 279.794 432.694 279.794 429.413C279.794 426.131 277.134 423.471 273.852 423.471C270.571 423.471 267.911 426.131 267.911 429.413C267.911 432.694 270.571 435.354 273.852 435.354Z" fill="#3F3D56"/>
<path d="M226.86 426.712C233.423 426.712 238.743 421.392 238.743 414.829C238.743 408.266 233.423 402.946 226.86 402.946C220.297 402.946 214.977 408.266 214.977 414.829C214.977 421.392 220.297 426.712 226.86 426.712Z" fill="#25233A"/>
<path d="M231.181 415.369C231.181 416.945 230.555 418.456 229.441 419.57C228.326 420.685 226.815 421.311 225.239 421.311C223.664 421.311 222.152 420.685 221.038 419.57C219.924 418.456 219.298 416.945 219.298 415.369C219.298 413.793 219.924 412.282 221.038 411.168C222.152 410.053 223.664 409.427 225.239 409.427C226.815 409.427 228.326 410.053 229.441 411.168C230.555 412.282 231.181 413.793 231.181 415.369Z" fill="url(#paint0_linear_1_813)"/>
<path d="M223.619 442.916C230.182 442.916 235.502 437.596 235.502 431.033C235.502 424.47 230.182 419.15 223.619 419.15C217.056 419.15 211.736 424.47 211.736 431.033C211.736 437.596 217.056 442.916 223.619 442.916Z" fill="#25233A"/>
<path d="M233.342 431.573C233.342 433.149 232.716 434.66 231.601 435.775C230.487 436.889 228.976 437.515 227.4 437.515C225.824 437.515 224.313 436.889 223.199 435.775C222.084 434.66 221.458 433.149 221.458 431.573C221.458 429.997 222.084 428.486 223.199 427.372C224.313 426.258 225.824 425.632 227.4 425.632C228.976 425.632 230.487 426.258 231.601 427.372C232.716 428.486 233.342 429.997 233.342 431.573Z" fill="#3F3D56"/>
<path d="M277.725 422.255L222.861 411.402C219 410.628 216.504 406.941 217.278 403.153C218.069 399.372 221.826 396.926 225.688 397.68L280.552 408.512C284.413 409.287 286.909 412.974 286.135 416.763C285.354 420.551 281.594 423.008 277.725 422.255Z" fill="#2BD0D0"/>
<path d="M244.144 334.888H259.268V398.625C259.268 402.801 255.884 406.187 251.71 406.187C249.705 406.186 247.782 405.389 246.365 403.971C244.948 402.552 244.152 400.63 244.152 398.625V334.888H244.144Z" fill="#2BD0D0"/>
<path d="M249.748 417.754L223.241 425.343C219.386 426.439 215.34 424.318 214.194 420.603C213.063 416.887 215.26 412.987 219.107 411.881L245.614 404.313C249.464 403.222 253.504 405.337 254.653 409.046C255.776 412.757 253.584 416.645 249.748 417.753V417.754Z" fill="#2BD0D0"/>
<path d="M254.947 417.27L251.571 417.866C250.546 418.043 249.505 418.106 248.466 418.051L249.875 417.805C250.809 417.649 251.719 417.375 252.584 416.989L254.947 417.27Z" fill="url(#paint1_linear_1_813)"/>
<path d="M281.954 402.663C281.957 404.33 281.402 405.951 280.377 407.267L258.188 402.568C258.749 401.765 259.152 400.862 259.374 399.908L273.044 395.67C273.924 395.404 274.85 395.323 275.763 395.431C276.676 395.538 277.557 395.833 278.352 396.295C279.972 397.232 281.17 398.806 281.682 400.668C281.859 401.317 281.951 401.989 281.954 402.663Z" fill="url(#paint2_linear_1_813)"/>
<path opacity="0.31" d="M243.302 400.896C243.144 400.341 243.064 399.767 243.064 399.19V335.968H249.484V404.102C249.42 404.437 249.441 404.779 249.546 405.106C248.556 404.763 247.519 404.577 246.472 404.554C245.727 404.511 244.976 404.511 244.23 404.554L244.689 404.446C244.972 404.403 243.672 402.187 243.302 400.896Z" fill="url(#paint3_linear_1_813)"/>
<path opacity="0.31" d="M283.347 421.094C282.299 421.659 281.12 421.955 279.922 421.954C279.44 421.953 278.959 421.906 278.486 421.814L254.28 417.054L252.263 416.662C251.571 417.18 250.79 417.566 249.959 417.802L248.759 418.144L223.886 425.345C220.09 426.433 216.106 424.327 214.977 420.633C217.134 422.583 220.41 422.765 222.78 421.066C225.816 419.018 237.906 415.943 244.754 414.307C247.99 413.553 250.466 411.012 251.071 407.825C251.089 407.638 251.117 407.452 251.158 407.267C252.298 408.469 254.395 409.819 258.185 410.965C267.519 413.762 282.672 415.614 282.672 415.614C282.672 415.614 285.407 418.228 283.347 421.094Z" fill="url(#paint4_linear_1_813)"/>
<path d="M285.195 419.15C284.616 419.999 283.883 420.731 283.035 421.311C283.763 420.599 284.483 419.879 285.195 419.15Z" fill="url(#paint5_linear_1_813)"/>
<path d="M244.468 400.309C244.77 401.579 245.404 402.746 246.305 403.69C246.078 403.732 245.846 403.789 245.612 403.853L222.634 410.508C219.1 409.629 216.772 406.332 217.185 402.788C217.596 399.245 220.621 396.543 224.267 396.464C224.757 396.465 225.245 396.513 225.726 396.607L244.468 400.309Z" fill="url(#paint6_linear_1_813)"/>
<path d="M279.794 96.5849C279.794 96.5849 279.496 74.1096 261.348 76.0487C243.199 77.9857 244.592 70.5447 236.84 71.3614C229.089 72.1792 220.084 79.7725 222.669 89.1515C225.257 98.5305 215.829 100.627 209.637 107.743C203.444 114.859 211.094 120.681 221.527 127.638C231.959 134.595 220.878 132.794 227.063 143.793C233.249 154.792 254.186 140.742 254.186 140.742L279.794 96.5849Z" fill="#503164"/>
<path d="M132.512 469.492L145.184 469.923V368.652C145.184 368.652 145.821 342.465 170.519 339.838C195.215 337.212 419.196 304.765 419.196 304.765C419.196 304.765 428.073 303.825 433.186 320.863C438.299 337.9 443.276 404.895 443.276 404.895L512.026 414.16C512.026 414.16 513.84 295.815 489.013 289.285C464.187 282.755 139.518 316.033 139.518 316.033C139.518 316.033 115.438 441.726 132.512 469.492Z" fill="#2BD0D0"/>
<path opacity="0.197" d="M132.512 469.492L145.184 469.923V368.652C145.184 368.652 145.821 342.465 170.519 339.838C195.215 337.212 419.196 304.765 419.196 304.765C419.196 304.765 428.073 303.825 433.186 320.863C438.299 337.9 443.276 404.895 443.276 404.895L512.026 414.16C512.026 414.16 513.84 295.815 489.013 289.285C464.187 282.755 139.518 316.033 139.518 316.033C139.518 316.033 115.438 441.726 132.512 469.492Z" fill="url(#paint7_linear_1_813)"/>
<path d="M66.9779 328.173C66.9779 328.173 73.183 293.867 116.827 284.876L424.905 249.612C424.905 249.612 455.149 248.359 468.985 256.728C482.821 265.096 502.569 272.034 510.665 309.903C518.762 347.774 520.697 412.467 520.697 412.467L513.038 413.656C513.038 413.656 501.859 296.51 490.015 289.093C478.172 281.676 157.933 327.178 157.933 327.178C157.933 327.178 135.722 331.594 133.787 364.482C131.853 397.369 133.787 468.843 133.787 468.843L66.9779 441.898V328.173Z" fill="#2BD0D0"/>
<path opacity="0.19" d="M383.96 263.421C368.013 261.368 351.936 259.882 335.867 260.482C323.789 260.95 311.792 262.606 299.816 264.256L194.191 278.843C192.398 279.091 190.356 279.494 189.459 281.051C187.74 284.024 191.782 286.954 195.057 288.086C230.177 300.245 267.699 312.561 303.851 303.89C320.379 299.927 335.731 291.696 352.496 288.836C369.26 285.977 386.468 288.61 403.197 285.913C418.922 283.38 433.895 276.181 449.835 276.111C454.723 276.111 459.755 276.734 464.391 275.204C469.029 273.676 473.129 269.005 471.845 264.348C456.88 263.831 440.081 261.099 425.402 264.065C410.873 266.994 398.509 263.421 383.96 263.421Z" fill="url(#paint8_linear_1_813)"/>
<path d="M288.436 280.204L289.052 282.488C289.052 282.488 307.288 293.477 307.174 293.832C307.059 294.186 382.819 276.288 382.819 276.288L384.581 271.151L288.436 280.204Z" fill="#2BD0D0"/>
<path d="M288.436 280.204L289.052 282.488C289.052 282.488 307.288 293.477 307.174 293.832C307.059 294.186 382.819 276.288 382.819 276.288L384.581 271.151L288.436 280.204Z" fill="url(#paint9_linear_1_813)"/>
<path d="M289.516 280.187L356.609 265.75L384.581 271.21L308.359 289.516L289.516 280.187Z" fill="#2BD0D0"/>
<path d="M289.516 280.187L356.609 265.75L384.581 271.21L308.359 289.516L289.516 280.187Z" fill="url(#paint10_linear_1_813)"/>
<path d="M267.729 292.199L283.347 292.753C283.347 292.753 287.314 292.999 288.338 289.817C289.364 286.636 281.975 279.922 281.184 279.796C280.392 279.668 259.838 285.435 262.801 291.199L267.729 292.199Z" fill="#2BD0D0"/>
<path d="M267.729 292.199L283.347 292.753C283.347 292.753 287.314 292.999 288.338 289.817C289.364 286.636 281.975 279.922 281.184 279.796C280.392 279.668 259.838 285.435 262.801 291.199L267.729 292.199Z" fill="url(#paint11_linear_1_813)"/>
<path d="M85.3428 449.458L77.7181 472.876C55.6015 480.817 36.797 472.876 36.797 472.876L31.3286 448.318C31.3286 448.318 58.9137 457.565 85.3428 449.458Z" fill="#2BD0D0"/>
<path d="M85.3428 449.458L77.7181 472.876C55.6015 480.817 36.797 472.876 36.797 472.876L31.3286 448.318C31.3286 448.318 58.9137 457.565 85.3428 449.458Z" fill="url(#paint12_linear_1_813)"/>
<path d="M93.985 427.792L91.5177 446.095L85.2671 449.345C58.6403 457.361 30.8046 448.224 30.8046 448.224L26.0049 444.677L23.7666 427.792H93.985Z" fill="#2BD0D0"/>
<path d="M93.985 427.792L91.5177 446.095L85.2671 449.345C58.6403 457.361 30.8046 448.224 30.8046 448.224L26.0049 444.677L23.7666 427.792H93.985Z" fill="url(#paint13_linear_1_813)"/>
<path d="M58.8758 433.194C78.2661 433.194 93.985 430.292 93.985 426.712C93.985 423.132 78.2661 420.23 58.8758 420.23C39.4855 420.23 23.7666 423.132 23.7666 426.712C23.7666 430.292 39.4855 433.194 58.8758 433.194Z" fill="#2BD0D0"/>
<path d="M58.8758 433.194C78.2661 433.194 93.985 430.292 93.985 426.712C93.985 423.132 78.2661 420.23 58.8758 420.23C39.4855 420.23 23.7666 423.132 23.7666 426.712C23.7666 430.292 39.4855 433.194 58.8758 433.194Z" fill="url(#paint14_linear_1_813)"/>
<path d="M42.8239 286.308C39.3864 284.671 35.6908 283.436 32.7167 281.047C26.7244 276.185 25.2055 267.815 23.3291 260.307C21.4537 252.798 17.8229 244.543 10.4262 242.389C7.65847 241.592 4.41222 241.908 2.30783 243.89C0.0900076 245.978 -0.360471 249.41 0.246649 252.44C0.852688 255.469 2.32944 258.182 3.4713 261.054C6.13679 267.727 6.94754 274.998 5.81767 282.094C4.88323 287.916 2.65028 293.817 4.08382 299.524C6.51661 309.207 18.6352 314.885 18.9701 324.864C19.1991 331.597 13.6929 337.828 14.9407 344.455C15.8611 349.357 20.3475 353.184 20.5905 358.166C20.8606 363.816 15.5543 368.596 15.8114 374.246C16.0674 379.896 21.6741 383.671 25.3341 388.116C28.4045 391.854 30.2279 396.46 30.5486 401.288C30.7409 404.303 30.3552 407.426 31.3329 410.283C32.0459 412.371 33.4719 414.145 34.5781 416.026C35.7988 418.057 36.7181 420.254 38.1873 422.135C40.0259 424.475 42.5274 426.206 45.3653 427.103C48.2031 427.999 51.2453 428.019 54.0945 427.159C55.2288 419.651 54.2371 411.992 54.5514 404.403C55.1715 389.701 60.6993 374.885 57.1614 360.614C55.864 355.381 53.3674 350.413 52.9245 345.044C52.5324 340.247 53.8017 335.496 54.6865 330.766C56.5121 320.995 56.4841 310.895 55.7343 301.017C55.1434 293.178 49.6642 289.567 42.8239 286.308Z" fill="#2BD0D0"/>
<path d="M64.5494 324.914C64.4921 331.462 65.9862 338.234 63.8883 344.451C62.3003 349.163 58.8088 353.022 57.0058 357.655C52.8467 368.349 58.4426 380.341 57.3007 391.759C56.8254 396.463 55.2093 400.982 54.1895 405.601C52.9225 411.449 52.6121 417.463 53.2702 423.41C53.2033 424.493 53.5299 425.564 54.1898 426.426C54.8498 427.288 55.7987 427.882 56.8621 428.1C60.3824 429.441 64.0288 430.423 67.746 431.033C66.4892 424.109 67.8132 416.965 71.4675 410.951C77.165 401.628 88.2357 395.345 90.2969 384.636C91.6904 377.385 88.4442 370.026 88.6743 362.647C88.8401 357.735 90.5325 352.997 93.5161 349.091C96.1952 345.605 99.8239 342.909 102.317 339.293C108.308 330.58 106.441 318.932 104.659 308.512C102.877 298.09 101.843 286.098 108.883 278.202C111.111 275.707 114.012 273.834 116.031 271.166C120.529 265.22 119.393 256.061 114.163 250.747C108.934 245.432 100.513 243.963 93.4016 246.3C90.4025 247.182 87.7544 248.98 85.8288 251.442C82.2369 256.535 83.6737 263.492 85.1969 269.545C86.5256 274.803 87.5962 280.869 85.7791 286.17C84.4212 290.114 80.9794 292.252 78.0551 294.998C73.9121 298.824 70.5813 303.444 68.261 308.583C65.9408 313.722 64.6785 319.276 64.5494 324.914Z" fill="#2BD0D0"/>
<path d="M57.3223 382.984C56.309 390.107 54.8463 397.286 54.546 404.429V405.147C54.5305 405.325 54.4901 405.499 54.4261 405.665C53.1603 411.518 52.8444 417.537 53.4906 423.491C53.5295 424.455 53.7725 425.401 54.2036 426.263C54.169 426.564 54.1258 426.858 54.0837 427.159C51.2335 428.019 48.1904 427.999 45.3517 427.103C42.513 426.206 40.0105 424.474 38.1711 422.134C36.7451 420.253 35.7804 418.056 34.5608 416.025C33.4189 414.136 32.0275 412.363 31.3145 410.281C30.3369 407.408 30.7215 404.3 30.5292 401.285C30.2088 396.457 28.385 391.85 25.3136 388.11C21.6525 383.695 16.0372 379.991 15.7876 374.247C15.5381 368.503 20.839 363.816 20.5679 358.165C20.3259 353.183 15.8373 349.356 14.918 344.453C13.6681 337.825 19.1981 331.594 18.9485 324.86C18.6136 314.88 6.49069 309.201 4.05681 299.516C2.63084 293.808 4.85622 287.906 5.79067 282.085C6.92617 274.996 6.12518 267.733 3.47238 261.062C2.33052 258.191 0.853773 255.485 0.246654 252.447C-0.359385 249.412 0.0900129 245.986 2.30891 243.889C4.45004 241.908 7.66064 241.592 10.4294 242.389C17.8358 244.543 21.4526 252.829 23.3366 260.338C25.2206 267.848 26.733 276.211 32.7265 281.079C35.6886 283.485 39.3983 284.704 42.8379 286.342C49.6869 289.601 55.1672 293.213 55.7527 300.98C56.4657 310.859 56.5305 320.961 54.7048 330.732C53.819 335.464 52.5637 340.217 52.9418 345.012C53.3199 349.809 55.3962 354.346 56.752 358.998C56.9021 359.522 57.0512 360.053 57.1797 360.585C58.9784 367.973 58.4005 375.446 57.3223 382.984Z" fill="#30C59B"/>
<path d="M53.7099 425.632C53.3834 424.771 53.2002 423.863 53.1676 422.944C52.7031 417.154 52.9343 411.298 53.8558 405.609C53.8806 405.441 53.912 405.274 53.9422 405.106C53.7575 411.962 54.3462 418.873 53.7099 425.632Z" fill="url(#paint15_linear_1_813)"/>
<path d="M116.015 271.166C113.994 273.835 111.087 275.706 108.856 278.202C101.805 286.092 102.841 298.09 104.626 308.512C106.409 318.932 108.28 330.58 102.279 339.294C99.7839 342.881 96.1498 345.605 93.4653 349.091C90.4773 352.995 88.7817 357.734 88.6148 362.647C88.3858 370.026 91.6375 377.385 90.2418 384.636C88.1773 395.345 77.0893 401.642 71.3832 410.952C67.7376 416.969 66.4217 424.112 67.6844 431.033C63.971 430.423 60.3286 429.441 56.8124 428.1C55.8515 427.816 54.9797 427.289 54.2802 426.572C54.1809 426.455 54.0916 426.33 54.0134 426.199C53.5675 425.345 53.31 424.406 53.2582 423.444C52.6112 417.496 52.9342 411.482 54.2154 405.637C54.251 405.464 54.2942 405.292 54.3375 405.12C55.3594 400.68 56.8707 396.327 57.3309 391.794C57.5757 388.855 57.5177 385.899 57.1581 382.972C58.2448 375.442 58.8271 367.976 56.9928 360.645C56.8632 360.116 56.7119 359.584 56.5607 359.06C56.6979 358.601 56.8556 358.142 57.036 357.691C58.8422 353.057 62.3391 349.2 63.9282 344.486C66.0229 338.268 64.5332 331.498 64.5904 324.949C64.6844 313.639 69.8006 302.717 78.0173 294.998C80.9448 292.252 84.392 290.116 85.7521 286.17C87.5724 280.869 86.4716 274.803 85.1687 269.545C83.6369 263.492 82.1828 256.535 85.8029 251.442C87.6015 248.918 90.4373 247.276 93.3865 246.3C100.481 243.962 108.95 245.432 114.181 250.747C119.412 256.062 120.52 265.255 116.015 271.166Z" fill="#30C59B"/>
<path d="M243.683 157.879C243.683 157.879 213.633 162.524 199.733 195.664C185.833 228.804 193.061 269.861 193.304 273.474C193.547 277.086 235.898 292.757 248.004 292.757C260.112 292.757 262.633 280.626 262.633 280.626L241.241 271.516L306.241 264.009H317.913L311.484 274.847C311.484 274.847 324.17 276.176 332.649 276.479C341.127 276.783 346.885 260.016 347.834 251.677C348.785 243.34 310.384 170.161 304.648 165.827C298.912 161.492 283.348 150.901 243.683 157.879Z" fill="#2BD0D0"/>
<path d="M279.137 95.9033C279.137 95.9033 284.573 98.9605 284.085 108.85C283.595 118.74 280.531 133.624 277.438 137.478C274.344 141.335 263.524 142.845 263.524 142.845C263.524 142.845 269.426 156.864 273.819 160.482C278.211 164.099 269.405 177.428 260.839 173.055C252.275 168.681 242.345 157.698 242.345 157.698C242.345 157.698 249.488 144.47 247.072 137.507C244.658 130.545 235.435 106.11 242.345 99.4358C249.254 92.7596 264.151 83.1937 279.137 95.9033Z" fill="url(#paint16_linear_1_813)"/>
<path opacity="0.25" d="M231.542 205.254L226.86 263.649L241.161 271.151L252.787 269.122L238.281 251.293L231.542 205.254ZM306.801 202.013C306.801 202.013 326.148 247.468 317.571 263.589L310.964 262.336L306.801 202.013Z" fill="white"/>
<path d="M254.431 278.762C254.431 278.762 247.122 285 250.384 289.853C253.647 294.705 257.541 294.566 260.788 292.397C264.036 290.227 270.415 285.077 278.015 287.441C285.614 289.804 287.46 291.308 287.46 291.308C287.46 291.308 291.463 288.806 290.425 286.297C289.386 283.787 281.437 275.656 279.134 274.603C276.831 273.549 267.269 276.786 267.269 276.786C267.269 276.786 260.244 274.886 254.431 278.762Z" fill="url(#paint17_linear_1_813)"/>
<path d="M318.89 265.316C318.89 265.316 311.993 266.135 310.25 270.67C308.508 275.205 307.881 275.759 307.881 275.759C307.881 275.759 311.777 276.504 313.397 274.393C315.017 272.282 316.702 273.169 316.702 273.169L316.219 275.877C316.219 275.877 326.803 277.473 331.585 275.759C336.365 274.042 338.417 272.028 338.417 272.028L340.29 267.448C340.29 267.448 335.774 264.175 332.369 263.667C328.964 263.159 318.89 265.316 318.89 265.316Z" fill="url(#paint18_linear_1_813)"/>
<path d="M355.298 313.282C355.298 313.282 378.993 331.309 376.886 355.693C374.781 380.077 371.687 416.283 371.687 416.283C371.687 416.283 362.131 420.304 355.799 416.283C349.467 412.262 345.633 357.245 342.496 351.992C339.358 346.738 320.485 323.051 300.319 321.011L355.298 313.282Z" fill="#25233A"/>
<path d="M236.582 330.629C236.582 330.629 247.865 341.319 267.978 344.675C288.091 348.032 297.466 350.833 303.613 368.015C309.76 385.197 315.656 422.177 317.586 426.31C319.516 430.443 327.722 428.335 327.722 428.335C327.722 428.335 332.362 423.047 332.362 393.642C332.362 352.65 335.231 344.247 324.894 333.95C314.558 323.652 305.156 320.844 305.156 320.844L236.582 330.629Z" fill="#3F3D56"/>
<path d="M317.604 427.792L319.57 443.129H323.251C323.251 443.129 346.961 444.411 347.705 443.858C348.448 443.304 346.563 431.713 337.58 432.04C328.597 432.368 328.008 429.855 328.008 429.855L317.604 427.792ZM357.574 417.158L361.375 432.113L402.897 426.483C402.897 426.483 404.359 416.66 391.205 417.634C387.733 417.887 385.147 420.297 380.974 420.319C376.801 420.34 372.804 418.652 370.7 415.909L357.574 417.158Z" fill="#25233A"/>
<path d="M504.75 229.384L351.088 237.653C347.372 237.848 344.2 234.984 344 231.251V121.503C344.003 117.073 347.529 113.457 351.938 113.363L504.972 110.19C505.945 110.17 506.912 110.343 507.818 110.699C508.724 111.054 509.55 111.585 510.25 112.261C511.668 113.63 512.486 115.505 512.524 117.476V221.151C512.519 225.533 509.106 229.148 504.75 229.384Z" fill="#2BD0D0"/>
<path d="M513.393 229.384L359.722 237.654C356.006 237.845 352.839 234.977 352.642 231.243V121.503C352.638 117.071 356.164 113.453 360.574 113.363L513.628 110.19C517.708 110.114 521.08 113.369 521.166 117.469V221.151C521.161 225.534 517.748 229.149 513.393 229.384Z" fill="#2BD0D0"/>
<path d="M513.393 229.384L359.722 237.654C356.006 237.845 352.839 234.977 352.642 231.243V121.503C352.638 117.071 356.164 113.453 360.574 113.363L513.628 110.19C517.708 110.114 521.08 113.369 521.166 117.469V221.151C521.161 225.534 517.748 229.149 513.393 229.384Z" fill="url(#paint19_linear_1_813)"/>
<path d="M462.529 271.3L423.32 275.472C423.32 275.472 411.379 273.063 412.025 271.3C412.672 269.536 425.157 267.838 425.157 267.838V196.751C425.049 196.593 423.406 194.5 418.903 193.166C418.032 192.907 417.145 192.701 416.247 192.55C415.476 192.437 414.726 192.21 414.022 191.876C411.344 190.493 414.303 188.084 418.458 187.976C419.109 187.953 419.761 187.991 420.405 188.09H450.559C450.559 188.09 461.975 191.302 462.529 207.331C463.081 223.362 462.529 271.3 462.529 271.3Z" fill="#3A3054"/>
<path d="M429.953 271.45L422.739 275.472C422.739 275.472 410.977 273.063 411.613 271.299C412.251 269.536 424.571 267.837 424.571 267.837V196.744C424.422 196.58 422.619 194.694 418.41 193.16C416.844 192.601 415.236 192.17 413.601 191.869C410.963 190.486 413.876 188.077 417.972 187.969C421.459 188.45 428.326 192.321 428.772 194.53C429.217 196.738 429.953 271.45 429.953 271.45Z" fill="#51466B"/>
<path d="M284.115 420.23C283.163 421.312 282.721 421.71 283.283 420.821C283.575 420.649 283.852 420.452 284.115 420.23Z" fill="url(#paint20_linear_1_813)"/>
<defs>
<linearGradient id="paint0_linear_1_813" x1="219.298" y1="1003.58" x2="1407.61" y2="1003.58" gradientUnits="userSpaceOnUse">
<stop stop-color="#183866"/>
<stop offset="1" stop-color="#1A7FC1"/>
</linearGradient>
<linearGradient id="paint1_linear_1_813" x1="247.623" y1="471.095" x2="896.636" y2="471.095" gradientUnits="userSpaceOnUse">
<stop/>
<stop offset="0.99" stop-opacity="0"/>
</linearGradient>
<linearGradient id="paint2_linear_1_813" x1="4442.76" y1="-6330.44" x2="7205.34" y2="-5038.42" gradientUnits="userSpaceOnUse">
<stop/>
<stop offset="0.99" stop-opacity="0"/>
</linearGradient>
<linearGradient id="paint3_linear_1_813" x1="625.018" y1="-17501.5" x2="245.693" y2="-17604.8" gradientUnits="userSpaceOnUse">
<stop/>
<stop offset="0.99" stop-opacity="0"/>
</linearGradient>
<linearGradient id="paint4_linear_1_813" x1="11007.4" y1="-754.734" x2="1692.55" y2="-3797.53" gradientUnits="userSpaceOnUse">
<stop/>
<stop offset="0.99" stop-opacity="0"/>
</linearGradient>
<linearGradient id="paint5_linear_1_813" x1="5384.23" y1="-35413.6" x2="4955.59" y2="-35549" gradientUnits="userSpaceOnUse">
<stop/>
<stop offset="0.99" stop-opacity="0"/>
</linearGradient>
<linearGradient id="paint6_linear_1_813" x1="7257.88" y1="-5586.88" x2="4260.66" y2="-4790.02" gradientUnits="userSpaceOnUse">
<stop/>
<stop offset="0.99" stop-opacity="0"/>
</linearGradient>
<linearGradient id="paint7_linear_1_813" x1="41334.3" y1="4372.27" x2="-13589.3" y2="1728.32" gradientUnits="userSpaceOnUse">
<stop/>
<stop offset="1" stop-opacity="0"/>
</linearGradient>
<linearGradient id="paint8_linear_1_813" x1="4199.37" y1="-1659.78" x2="32502.5" y2="-1659.78" gradientUnits="userSpaceOnUse">
<stop stop-color="#183866"/>
<stop offset="1" stop-color="#1A7FC1"/>
</linearGradient>
<linearGradient id="paint9_linear_1_813" x1="4171.36" y1="1167.58" x2="4512.61" y2="2493.58" gradientUnits="userSpaceOnUse">
<stop/>
<stop offset="0.99" stop-opacity="0"/>
</linearGradient>
<linearGradient id="paint10_linear_1_813" x1="-901.743" y1="1333.4" x2="8316.82" y2="4283.13" gradientUnits="userSpaceOnUse">
<stop/>
<stop offset="0.99" stop-opacity="0"/>
</linearGradient>
<linearGradient id="paint11_linear_1_813" x1="1654.8" y1="827.77" x2="1586.87" y2="1349.43" gradientUnits="userSpaceOnUse">
<stop/>
<stop offset="0.99" stop-opacity="0"/>
</linearGradient>
<linearGradient id="paint12_linear_1_813" x1="10344" y1="-8911.73" x2="5554.3" y2="-9096.63" gradientUnits="userSpaceOnUse">
<stop/>
<stop offset="0.99" stop-opacity="0"/>
</linearGradient>
<linearGradient id="paint13_linear_1_813" x1="11861" y1="-2709.08" x2="7859.32" y2="-2845.87" gradientUnits="userSpaceOnUse">
<stop/>
<stop offset="0.99" stop-opacity="0"/>
</linearGradient>
<linearGradient id="paint14_linear_1_813" x1="4025.44" y1="985.668" x2="3879.42" y2="1707.53" gradientUnits="userSpaceOnUse">
<stop/>
<stop offset="0.99" stop-opacity="0"/>
</linearGradient>
<linearGradient id="paint15_linear_1_813" x1="115.65" y1="-29840.5" x2="-220.114" y2="-27773.2" gradientUnits="userSpaceOnUse">
<stop/>
<stop offset="0.99" stop-opacity="0"/>
</linearGradient>
<linearGradient id="paint16_linear_1_813" x1="238.052" y1="4302.21" x2="4668.89" y2="4302.21" gradientUnits="userSpaceOnUse">
<stop stop-color="#ECC4D7"/>
<stop offset="0.42" stop-color="#EFD4D1"/>
<stop offset="1" stop-color="#F2EAC9"/>
</linearGradient>
<linearGradient id="paint17_linear_1_813" x1="4314.93" y1="-2900.76" x2="8419.97" y2="-2900.76" gradientUnits="userSpaceOnUse">
<stop stop-color="#ECC4D7"/>
<stop offset="0.42" stop-color="#EFD4D1"/>
<stop offset="1" stop-color="#F2EAC9"/>
</linearGradient>
<linearGradient id="paint18_linear_1_813" x1="4336.45" y1="-832.618" x2="7577.3" y2="-832.618" gradientUnits="userSpaceOnUse">
<stop stop-color="#ECC4D7"/>
<stop offset="0.42" stop-color="#EFD4D1"/>
<stop offset="1" stop-color="#F2EAC9"/>
</linearGradient>
<linearGradient id="paint19_linear_1_813" x1="22073.7" y1="12903.5" x2="6725.17" y2="23111" gradientUnits="userSpaceOnUse">
<stop stop-color="#362958" stop-opacity="0.501"/>
<stop offset="1" stop-color="#34313D" stop-opacity="0"/>
</linearGradient>
<linearGradient id="paint20_linear_1_813" x1="4592.29" y1="-36537" x2="4466.4" y2="-36583.5" gradientUnits="userSpaceOnUse">
<stop/>
<stop offset="0.99" stop-opacity="0"/>
</linearGradient>
</defs>
</svg>
